<?xml version="1.0" standalone="no"?>
<!DOCTYPE svg PUBLIC "-//W3C//DTD SVG 20010904//EN"
 "http://www.w3.org/TR/2001/REC-SVG-20010904/DTD/svg10.dtd">
<svg version="1.0" xmlns="http://www.w3.org/2000/svg"
 width="1140.000000pt" height="360.000000pt" viewBox="0 0 1140.000000 360.000000"
 preserveAspectRatio="xMidYMid meet">

<g transform="translate(0.000000,360.000000) scale(0.100000,-0.100000)"
fill="#000000" stroke="none">
<path d="M28 3560 l-30 -30 6 -308 c3 -169 5 -314 5 -322 0 -8 -2 -145 -5
-303 -3 -159 -3 -309 1 -334 6 -41 8 -43 20 -26 11 14 16 15 26 6 13 -13 31
-111 23 -125 -13 -21 -33 -4 -45 39 l-14 46 -6 -59 c-9 -78 -11 -330 -3 -385
l6 -45 82 -18 c44 -10 89 -22 98 -27 26 -14 63 -83 93 -173 26 -78 26 -80 9
-127 -10 -26 -21 -46 -26 -43 -4 3 -8 -2 -8 -10 0 -9 -6 -16 -14 -16 -8 0 -17
-6 -19 -12 -4 -9 -6 -8 -6 3 -1 8 5 21 12 28 10 11 9 12 -3 5 -33 -19 -48 -14
-54 17 -6 30 -26 32 -26 3 0 -8 -8 -22 -19 -33 -12 -12 -17 -28 -14 -44 3 -17
-1 -29 -14 -38 -11 -8 -22 -19 -24 -26 -3 -9 -8 -9 -19 -2 -12 8 -12 12 -2 16
8 3 10 9 4 16 -6 7 -12 33 -15 59 -6 51 -22 88 -38 88 -7 0 -9 -222 -6 -665
l3 -664 23 -25 24 -25 946 0 c520 0 955 4 965 8 30 11 3 24 -58 26 -51 3 -60
13 -33 39 23 23 42 23 64 0 12 -13 24 -20 28 -15 5 9 29 8 96 -4 28 -4 59 21
73 59 7 20 28 19 116 -4 25 -6 55 -14 66 -16 12 -2 38 -11 57 -19 20 -8 40
-14 44 -13 5 1 17 -3 29 -9 15 -9 32 -9 57 -2 44 12 80 7 192 -25 l89 -26 568
0 c312 0 568 3 568 8 0 4 -6 25 -14 47 -7 22 -16 86 -19 142 -5 101 -4 103 25
148 36 54 63 70 148 85 68 12 121 35 117 49 -1 5 14 20 32 33 48 32 67 69 87
171 20 104 31 112 127 104 55 -5 58 -4 82 26 22 30 29 32 98 35 66 4 77 2 96
-17 17 -17 19 -25 11 -42 -18 -32 -50 -42 -108 -31 -39 7 -56 6 -69 -4 -17
-12 -16 -14 6 -38 14 -15 41 -31 62 -36 73 -20 123 -81 133 -165 3 -27 9 -69
12 -93 11 -74 -2 -107 -67 -176 -40 -42 -66 -62 -77 -59 -10 2 -26 -7 -40 -24
-26 -32 -102 -149 -102 -158 0 -3 87 -4 193 -3 187 3 192 4 192 24 0 29 72
108 123 134 23 12 44 26 47 30 3 4 31 18 62 30 72 29 130 70 154 109 10 16 21
58 25 93 10 96 25 125 69 134 60 11 135 -4 174 -35 20 -16 54 -39 76 -51 67
-37 133 -92 144 -119 6 -14 12 -78 13 -141 3 -104 1 -119 -19 -153 -13 -21
-23 -43 -23 -49 0 -7 73 -9 233 -6 260 4 265 5 306 78 15 27 25 68 31 126 5
47 14 91 19 98 6 7 36 18 67 25 73 17 94 38 94 95 0 49 24 76 68 76 71 0 127
58 111 115 -14 49 10 65 96 65 66 0 73 -2 85 -24 15 -28 9 -89 -11 -132 -10
-21 -23 -30 -44 -32 -72 -7 -107 -39 -134 -122 -7 -22 -23 -43 -41 -53 -17
-10 -30 -23 -30 -28 0 -6 5 -7 10 -4 6 3 10 1 10 -6 0 -15 23 -34 85 -65 92
-48 125 -93 125 -169 l0 -45 258 0 c235 0 299 6 279 26 -16 16 63 70 96 65 4
0 7 3 7 7 0 5 12 14 26 21 15 6 24 14 21 18 -4 3 -2 15 4 26 9 15 8 18 -2 12
-9 -6 -10 -3 -5 11 4 10 10 34 12 52 6 45 29 66 70 65 19 0 34 5 34 11 0 6 5
4 10 -4 5 -8 10 -10 10 -4 0 6 -3 14 -7 18 -4 3 -8 14 -9 24 -2 9 -8 41 -15
70 -11 50 -10 56 15 105 15 29 60 95 101 147 41 52 93 118 115 147 22 29 132
143 245 255 113 111 201 206 196 211 -4 4 -31 11 -60 16 -62 10 -38 33 -266
-261 -88 -114 -164 -207 -169 -208 -5 0 -17 7 -27 16 -16 15 -24 11 -103 -59
-76 -66 -163 -123 -173 -113 -2 2 7 21 22 41 28 43 35 105 10 105 -11 0 -14
10 -11 39 2 22 7 44 11 50 3 6 1 11 -4 11 -6 0 -11 18 -11 41 0 32 4 42 20 46
11 3 20 10 20 15 0 5 10 18 22 28 l22 18 -28 41 c-38 54 -72 91 -86 91 -5 0
-10 -22 -10 -50 0 -70 -25 -94 -90 -88 -53 5 -80 25 -80 58 0 12 -10 44 -22
72 -31 72 -11 94 85 97 47 1 49 22 7 71 -16 19 -49 61 -72 92 -175 234 -225
298 -237 303 -8 3 -20 -4 -29 -16 -13 -19 -22 -21 -79 -17 -60 4 -64 3 -69
-19 -4 -13 -3 -38 0 -56 4 -21 1 -40 -7 -51 -16 -22 -95 -33 -126 -17 -18 10
-22 9 -30 -13 -6 -13 -8 -45 -5 -69 4 -38 1 -50 -17 -68 -19 -19 -29 -21 -84
-16 -72 7 -75 4 -75 -69 0 -31 -6 -50 -20 -64 -23 -23 -39 -24 -93 -9 -42 11
-61 43 -51 83 3 14 0 29 -9 37 -17 17 -37 54 -37 68 0 13 88 31 151 31 62 0
71 17 35 68 -14 21 -26 43 -26 49 0 6 19 18 42 28 33 13 58 15 110 10 61 -6
68 -5 68 11 0 9 -11 32 -25 50 -33 43 -32 60 5 79 32 16 105 20 114 6 3 -5 22
-11 41 -13 27 -3 34 -1 32 12 -1 8 -4 17 -7 20 -10 10 -40 81 -40 95 0 28 123
30 157 3 7 -5 16 -7 22 -4 5 3 17 3 26 -1 15 -5 16 -15 12 -57 l-6 -51 32 36
c39 43 178 221 527 677 102 132 189 240 194 238 5 -1 44 -45 85 -97 47 -58 85
-95 98 -97 14 -2 20 -8 17 -17 -12 -29 7 -36 42 -15 39 25 67 20 90 -15 20
-31 10 -61 -27 -81 l-30 -15 37 -52 c21 -29 122 -161 225 -294 227 -293 217
-277 201 -303 -17 -27 -16 -46 1 -31 16 13 27 5 27 -21 0 -11 7 -18 20 -18 23
0 25 -12 8 -40 -16 -26 -8 -31 30 -21 36 11 37 10 20 -35 -10 -27 -9 -36 3
-51 8 -10 21 -31 29 -48 l13 -30 7 25 c8 33 1 60 -16 60 -8 0 -14 7 -14 15 0
8 6 15 14 15 27 0 24 -22 51 359 8 118 15 244 15 280 0 36 3 75 6 86 6 25 80
57 148 63 46 5 50 4 37 -11 -12 -15 -10 -17 22 -17 20 0 39 5 42 10 10 17 51
11 69 -9 14 -16 22 -18 36 -9 12 8 49 8 121 2 l104 -9 -3 -95 c-1 -52 -7 -162
-13 -243 -6 -82 -9 -150 -7 -152 2 -2 23 103 47 233 24 130 48 245 53 255 7
15 25 17 128 17 89 0 122 -4 133 -14 10 -11 16 -57 21 -178 3 -90 9 -203 13
-253 l6 -90 24 110 c13 61 28 137 33 170 10 68 51 224 63 242 6 9 40 11 128 8
99 -4 121 -2 125 10 3 8 30 26 60 39 40 18 54 30 54 45 0 31 -42 27 -106 -10
-39 -22 -54 -26 -54 -16 0 33 39 50 121 55 122 7 188 -20 175 -73 -12 -45
-103 -73 -188 -57 l-48 9 1 -396 c0 -218 3 -389 7 -381 3 8 49 186 101 395
l96 380 127 3 c78 2 129 -1 133 -7 6 -11 12 -58 39 -331 8 -80 20 -200 27
-267 7 -68 14 -121 17 -119 2 2 16 163 32 356 21 260 31 355 41 362 8 5 75 7
149 5 129 -3 138 -5 197 -35 35 -18 70 -43 78 -56 23 -35 44 -40 82 -19 27 14
37 15 53 5 11 -6 31 -12 45 -12 14 0 25 -4 25 -9 0 -18 -53 -51 -92 -57 -21
-4 -38 -9 -38 -11 0 -3 8 -33 17 -67 23 -85 24 -328 0 -455 -26 -141 -66 -228
-135 -294 -106 -101 -110 -102 -391 -105 -135 -2 -255 -1 -268 3 -21 5 -23 11
-23 65 0 56 -2 61 -26 70 -14 6 -41 10 -60 10 -39 0 -42 -5 -58 -94 l-11 -61
-150 0 c-83 0 -156 -4 -162 -8 -7 -5 -13 -19 -13 -31 0 -35 -22 -47 -80 -45
-36 2 -54 -2 -61 -12 -14 -22 -12 -26 26 -49 41 -25 60 -57 70 -118 4 -24 11
-40 15 -35 5 4 18 41 29 80 31 103 39 100 76 -30 28 -99 43 -361 24 -430 -13
-50 -66 -137 -83 -137 -15 0 -56 -42 -56 -57 0 -6 -3 -13 -7 -15 -5 -2 -21
-28 -37 -58 -36 -68 -67 -107 -114 -142 -40 -32 -82 -35 -152 -14 -25 7 -49
14 -55 14 -16 2 -147 23 -185 31 -54 10 -65 43 -63 176 1 61 -2 125 -8 142 -9
29 -6 40 22 93 48 90 73 114 112 106 91 -19 95 -19 110 6 9 12 18 44 22 70 8
51 -2 99 -15 78 -13 -22 -37 -3 -47 36 -12 53 -33 56 -33 6 0 -23 -6 -45 -15
-52 -30 -25 -35 2 -27 125 l7 120 35 3 c27 2 41 -3 58 -21 l23 -24 30 29 c35
35 35 36 8 64 -15 16 -18 28 -13 48 6 25 10 27 43 22 20 -4 69 -8 109 -11 60
-5 73 -3 79 10 3 9 -2 24 -11 33 -12 12 -16 13 -16 3 0 -11 -18 -13 -92 -7
-51 4 -95 12 -99 17 -9 15 -18 144 -25 377 -7 206 -16 239 -28 102 -4 -41 -9
-86 -11 -100 -2 -14 -14 -105 -26 -202 -12 -98 -25 -182 -29 -188 -4 -7 -41
-8 -116 -3 l-109 8 2 59 2 58 -63 -61 c-75 -71 -96 -81 -179 -81 -51 0 -74 6
-129 35 -66 34 -68 34 -68 12 0 -51 21 -69 106 -91 84 -22 114 -38 114 -62 0
-8 9 -14 21 -14 20 0 20 -5 18 -142 -2 -162 -9 -189 -68 -253 -21 -23 -40 -48
-43 -56 -4 -11 -8 -11 -19 -2 -10 8 -20 9 -29 3 -8 -6 -11 -10 -6 -10 5 0 3
-8 -6 -18 -8 -9 -25 -39 -39 -65 -13 -26 -45 -69 -70 -96 -57 -60 -97 -70
-187 -47 -108 28 -134 22 -167 -43 -36 -70 -151 -224 -209 -279 -31 -30 -56
-58 -56 -64 0 -6 85 -8 248 -6 206 3 252 7 276 21 34 18 55 51 56 85 0 19 23
76 36 91 2 2 24 7 49 12 115 22 182 -77 115 -171 -11 -15 -20 -31 -20 -34 0
-3 43 -6 95 -6 l95 0 -6 27 c-4 15 -8 54 -8 86 -1 51 2 61 24 77 42 32 58 31
78 -3 33 -55 35 -100 7 -169 -7 -17 26 -18 597 -18 l604 0 2 127 c3 139 13
188 50 245 28 43 47 52 96 43 73 -14 88 6 112 153 8 52 24 121 35 151 25 73
24 88 -6 95 -14 4 -25 11 -25 17 0 8 -5 8 -15 -1 -19 -16 -31 -7 -45 35 -9 27
-17 35 -35 35 -18 0 -25 -7 -32 -37 -4 -20 -14 -38 -20 -40 -23 -8 -21 34 6
137 33 125 49 137 75 55 16 -51 38 -77 52 -62 3 3 8 25 11 49 7 54 18 68 55
68 40 0 65 -15 88 -53 17 -28 20 -29 20 -10 0 12 -4 33 -10 47 -6 17 -6 27 2
32 39 24 211 -2 240 -37 13 -15 18 -39 17 -87 0 -37 2 -85 3 -106 3 -43 -18
-63 -26 -24 -3 13 -7 35 -11 51 -8 39 -35 35 -35 -5 0 -38 -13 -63 -28 -54 -6
3 -14 31 -17 61 -5 40 -11 53 -19 46 -6 -5 -22 -11 -36 -13 -14 -1 -26 -11
-28 -20 -3 -14 3 -18 26 -18 19 0 32 -6 36 -17 10 -24 -19 -43 -66 -43 -35 0
-38 -2 -38 -29 0 -15 5 -42 11 -58 9 -28 17 -33 94 -52 46 -12 98 -21 114 -21
24 0 35 -9 60 -47 29 -43 31 -53 33 -142 3 -148 -2 -192 -26 -240 -25 -51 -41
-61 -51 -32 -8 26 -16 26 -45 1 -13 -11 -26 -20 -30 -20 -9 0 -27 -64 -35
-127 l-7 -53 221 0 c245 0 257 3 282 63 12 26 14 239 14 1187 l0 1155 -25 7
c-14 4 -37 10 -52 13 -16 3 -28 9 -28 14 0 10 53 26 81 24 25 -1 29 78 29 575
0 489 -1 494 -62 532 -33 20 -46 20 -1592 20 l-1558 0 -19 -24 c-33 -42 -99
-37 -147 10 -11 12 -248 14 -1458 14 -1400 0 -1445 -1 -1460 -19 -17 -20 -44
-18 -79 6 -16 11 -268 13 -1450 13 -1396 0 -1505 -2 -1505 -30 0 -6 -3 -9 -7
-8 -5 0 -17 -3 -27 -7 -13 -6 -21 -4 -24 3 -14 43 20 42 -993 42 l-961 0 -30
-30z m7020 -12 c7 -7 12 -21 12 -33 0 -44 -54 -60 -98 -30 -20 15 -21 17 -6
40 22 33 70 45 92 23z m-4138 -88 c20 -37 -12 -64 -90 -76 -50 -8 -70 7 -70
52 0 29 4 35 28 40 15 3 31 7 35 8 29 6 89 -8 97 -24z m3028 18 c33 -33 2 -78
-53 -78 -66 0 -87 46 -32 73 39 19 69 21 85 5z m3075 -28 c12 -11 -1 -47 -19
-54 -24 -9 -88 11 -109 33 -17 19 -16 20 6 25 67 15 103 13 122 -4z m-1083
-50 c11 -11 20 -26 20 -33 0 -44 -78 -74 -129 -50 -42 21 -42 54 2 82 41 26
81 27 107 1z m-3112 -2 c19 -19 14 -35 -17 -48 -34 -14 -91 -5 -91 15 0 33 83
58 108 33z m-1089 -70 c19 -53 -26 -92 -98 -85 -106 11 -60 105 52 107 30 0
39 -4 46 -22z m3075 6 c19 -18 19 -16 6 -48 -13 -35 -79 -53 -132 -36 -36 13
-54 33 -42 51 12 19 81 48 116 49 20 0 43 -7 52 -16z m3106 -64 c0 -5 -5 -10
-11 -10 -5 0 -7 5 -4 10 3 6 8 10 11 10 2 0 4 -4 4 -10z m30 6 c0 -3 -4 -8
-10 -11 -5 -3 -10 -1 -10 4 0 6 5 11 10 11 6 0 10 -2 10 -4z m-4270 -36 c0
-34 -25 -52 -75 -52 -39 0 -78 19 -73 35 7 20 71 47 111 47 34 0 37 -2 37 -30z
m3110 5 c54 -28 26 -70 -53 -81 -38 -5 -51 -3 -67 11 -19 17 -29 62 -11 51 4
-3 26 3 47 14 48 24 48 24 84 5z m-1091 -59 c50 -53 -2 -101 -107 -101 -42 0
-57 4 -68 19 -22 31 -18 40 34 74 60 40 109 42 141 8z m-3158 4 c24 -13 25
-57 2 -82 -17 -19 -58 -24 -68 -8 -16 26 -43 29 -69 9 -19 -15 -34 -19 -52
-15 -21 6 -25 12 -22 38 4 43 28 56 74 39 32 -12 39 -11 48 1 20 27 56 34 87
18z m1993 -79 c25 -28 17 -53 -24 -73 -59 -30 -160 -20 -160 17 0 19 99 75
136 75 18 0 38 -8 48 -19z m3171 -51 c3 -5 12 -7 20 -3 10 3 15 -1 15 -14 0
-25 -67 -47 -111 -38 -31 7 -31 25 0 25 10 0 26 9 37 19 22 23 30 25 39 11z
m-8516 -34 c28 -30 21 -63 -16 -72 -21 -6 -31 -1 -50 20 -22 25 -22 28 -7 51
21 32 44 32 73 1z m4186 12 c54 -25 38 -86 -29 -107 -72 -23 -132 -17 -152 15
-21 30 -14 39 61 78 55 29 81 32 120 14z m3191 -10 c50 -23 39 -69 -23 -95
-41 -17 -137 -17 -150 0 -6 6 -13 29 -16 50 -5 34 -4 36 14 27 21 -12 46 -2
69 25 15 18 58 15 106 -7z m-1136 -61 c31 -16 38 -57 13 -79 -56 -48 -213 -51
-213 -3 0 7 15 22 33 34 17 11 38 29 45 40 14 25 81 29 122 8z m-6428 -61 c10
-15 10 -48 -1 -65 -14 -22 -68 -23 -84 -1 -22 32 -16 73 13 81 29 8 62 1 72
-15z m950 -23 c36 -32 9 -103 -37 -103 -23 0 -71 55 -67 75 11 52 63 65 104
28z m4284 -16 c34 -29 28 -64 -15 -90 -57 -33 -72 -24 -83 48 -6 35 -33 23
-36 -15 -5 -49 -19 -62 -56 -54 -43 9 -68 33 -64 63 5 40 75 66 185 70 31 1
49 -5 69 -22z m3104 -1 c0 -13 -57 -56 -74 -56 -4 0 -6 10 -4 23 3 18 32 37
76 46 1 1 2 -5 2 -13z m165 -10 c98 -41 -20 -121 -150 -102 -59 9 -59 30 0 58
25 12 47 30 51 40 7 22 51 24 99 4z m1129 -5 c3 -5 -5 -11 -19 -13 -24 -5 -32
2 -18 15 9 10 31 9 37 -2z m36 5 c0 -3 -4 -8 -10 -11 -5 -3 -10 -1 -10 4 0 6
5 11 10 11 6 0 10 -2 10 -4z m-2355 -58 c82 -37 0 -118 -119 -118 -98 0 -117
28 -41 61 25 11 45 26 45 34 0 20 -16 18 -69 -5 -48 -22 -61 -24 -61 -10 0 15
48 43 88 51 44 9 123 3 157 -13z m-6559 -53 c18 -34 18 -34 -5 -59 -23 -24
-25 -24 -93 0 -28 10 -24 68 5 82 44 21 72 15 93 -23z m-966 14 c0 -19 -37
-50 -53 -44 -17 7 -23 35 -11 48 8 8 64 4 64 -4z m287 -114 c50 -66 102 -131
116 -143 24 -22 26 -23 35 -6 8 14 23 18 68 19 55 0 59 -2 68 -28 13 -36 -19
-82 -58 -82 -14 1 -26 -2 -26 -6 0 -4 24 -40 53 -80 161 -225 306 -409 322
-409 9 0 16 18 20 48 18 131 36 217 51 239 18 28 37 28 162 -3 35 -9 67 -12
71 -8 4 5 13 38 19 74 8 45 18 69 33 81 11 8 33 38 47 65 l27 49 78 6 c48 3
82 10 86 18 5 7 11 12 15 12 3 0 13 2 22 6 22 8 48 -9 52 -35 3 -22 45 -55 56
-45 3 4 6 43 7 87 1 45 4 92 8 106 7 26 7 26 86 17 17 -1 37 1 46 5 28 13 37
-12 40 -122 3 -85 1 -105 -10 -105 -8 0 -19 18 -26 40 l-11 40 -8 -32 c-8 -35
-30 -58 -45 -48 -6 3 -16 25 -22 48 l-12 42 -8 -48 c-4 -27 -12 -54 -18 -61
-8 -9 -7 -17 2 -28 9 -12 40 -17 125 -22 62 -3 117 -8 123 -11 5 -4 9 -57 9
-118 0 -62 4 -118 8 -124 7 -11 36 -20 71 -22 11 -1 11 -4 0 -17 -10 -13 -10
-17 2 -25 22 -14 39 -11 39 7 0 9 13 60 29 113 17 53 36 116 43 141 l13 44 85
13 c101 14 180 16 199 4 10 -6 12 -20 8 -44 -5 -30 -2 -36 19 -46 34 -15 34
-15 34 23 0 49 9 66 36 66 17 0 22 4 18 15 -4 8 -12 15 -20 15 -8 0 -14 4 -14
8 0 5 -8 18 -18 29 -17 20 -17 20 -35 -4 -15 -19 -26 -23 -55 -21 -60 5 -55
57 6 58 32 0 28 30 -7 61 -39 34 -48 72 -26 105 13 21 23 25 53 22 46 -4 51
-30 8 -38 -42 -7 -42 -24 -2 -60 19 -17 37 -43 40 -56 6 -23 8 -23 34 -11 37
18 84 20 107 3 16 -12 17 -19 8 -67 -6 -30 -9 -56 -7 -58 2 -2 27 -6 55 -9 30
-3 53 -10 56 -19 3 -7 -2 -104 -12 -214 -18 -215 -15 -236 26 -211 11 7 28 10
38 7 12 -3 21 0 25 10 3 8 11 97 17 198 15 256 -1 228 132 225 l112 -3 5 -95
c4 -79 7 -92 17 -75 10 18 22 20 105 20 100 0 94 4 86 -52 -2 -13 9 -21 42
-31 97 -30 112 -51 146 -212 23 -108 8 -138 -62 -129 -12 1 -42 -54 -49 -89
-6 -32 -56 -91 -77 -92 -3 0 -9 43 -13 95 -5 66 -13 102 -24 114 -16 19 -159
57 -170 46 -9 -10 21 -24 79 -36 30 -7 60 -17 67 -23 7 -7 13 -55 15 -126 l3
-115 -85 -67 c-47 -38 -91 -68 -99 -68 -8 0 -24 9 -36 20 -11 11 -35 22 -51
26 -28 5 -35 1 -82 -58 -76 -96 -146 -158 -178 -158 -44 0 -136 116 -192 244
-7 16 -14 27 -16 25 -2 -2 2 -60 8 -129 7 -69 11 -127 9 -129 -4 -6 -235 -1
-244 5 -4 2 -10 31 -14 63 -7 65 -14 71 -86 71 -30 0 -38 -4 -43 -22 -14 -53
-8 -66 33 -73 51 -8 68 -27 55 -63 -18 -52 -107 -68 -173 -33 l-35 18 -26 -54
c-18 -40 -24 -67 -21 -97 l4 -41 22 64 c21 64 40 86 50 58 3 -7 -7 -61 -23
-118 -35 -127 -52 -138 -77 -52 l-17 57 -25 -51 c-20 -43 -30 -54 -60 -62 -20
-6 -46 -20 -59 -32 -15 -14 -41 -24 -73 -27 -42 -4 -57 0 -98 24 -26 16 -56
32 -65 36 -16 6 -18 22 -18 118 l0 110 27 11 c64 24 128 -41 126 -128 -1 -29
3 -53 8 -53 5 0 9 41 9 90 0 73 3 90 15 90 12 0 15 -15 16 -72 1 -96 17 -148
18 -63 1 39 8 75 21 100 12 23 17 48 14 62 -4 16 -1 25 11 30 17 6 17 7 -1 20
-10 7 -31 13 -46 13 l-29 0 3 249 c2 137 0 244 -3 238 -4 -7 -19 -70 -33 -142
-41 -200 -76 -339 -88 -346 -5 -3 -46 -5 -90 -4 -61 2 -83 7 -90 18 -4 9 -9
53 -9 99 -1 117 -22 303 -34 303 -5 0 -16 -36 -22 -80 -11 -71 -11 -83 4 -112
17 -31 16 -33 -5 -56 -15 -16 -25 -46 -33 -100 -11 -71 -13 -78 -38 -83 -14
-3 -30 -7 -36 -8 -5 -2 -23 1 -40 6 -16 6 -54 9 -83 8 l-54 -1 4 55 c1 31 0
56 -4 56 -5 0 -8 -5 -8 -10 0 -21 -106 16 -130 45 -11 13 -8 16 19 21 17 4 31
11 31 16 0 5 5 6 10 3 6 -3 10 0 10 8 0 16 32 19 42 3 5 -7 8 -7 8 3 0 9 8 11
24 7 24 -6 24 -4 55 157 17 89 31 172 31 184 0 23 -6 26 -85 43 -27 6 -58 13
-67 16 -15 4 -17 1 -12 -23 5 -28 -25 -72 -195 -283 -102 -127 -389 -503 -406
-531 -26 -46 -30 -56 -14 -41 18 17 29 15 29 -5 0 -14 2 -15 9 -5 10 17 79 33
87 21 3 -5 0 -9 -6 -9 -6 0 -16 -12 -22 -26 -9 -19 -17 -24 -32 -19 -12 3 -28
7 -36 9 -8 1 -24 6 -34 11 -16 7 -29 -2 -71 -48 -29 -31 -56 -57 -61 -57 -5 1
-34 33 -64 73 -93 123 -223 287 -268 339 -23 27 -54 68 -68 90 -14 22 -90 121
-167 220 -78 99 -153 195 -166 213 l-23 34 22 38 c13 21 42 58 65 83 41 43
157 192 514 659 85 111 158 200 162 199 3 -2 47 -57 96 -123z m1648 91 c23
-23 25 -62 5 -76 -4 -3 -10 -16 -14 -30 -6 -21 -5 -22 4 -7 9 14 19 17 43 12
49 -11 77 -33 98 -78 l19 -42 0 52 c0 55 10 72 29 49 8 -9 11 -50 9 -117 -2
-85 -6 -104 -18 -104 -11 0 -16 15 -20 55 -5 51 -6 53 -12 22 -12 -51 -53 -84
-102 -80 l-41 3 -5 88 c-3 48 -8 87 -12 87 -5 0 -21 0 -38 0 -38 0 -40 -18 -3
-22 41 -4 43 -36 4 -49 -23 -8 -31 -17 -31 -35 0 -20 5 -24 29 -24 29 0 45
-18 33 -37 -11 -16 -79 -23 -91 -9 -11 14 -18 217 -7 234 4 7 21 12 37 12 27
0 29 2 15 15 -8 8 -19 15 -25 15 -6 0 -11 15 -11 34 0 28 5 36 28 44 41 16 51
14 77 -12z m4298 -36 c5 -20 5 -20 48 -1 38 17 46 18 70 5 33 -17 46 -49 27
-71 -25 -30 -98 -55 -159 -54 -127 1 -173 77 -75 122 54 24 82 24 89 -1z
m3276 -3 c-2 -2 -21 -14 -41 -26 -29 -17 -38 -19 -38 -8 0 16 35 35 64 36 11
1 17 0 15 -2z m162 -7 c58 -16 66 -34 32 -69 -34 -34 -110 -48 -178 -34 -54
12 -50 31 10 55 50 20 68 35 59 50 -7 11 34 10 77 -2z m-8890 -71 c23 -44 -18
-97 -64 -83 -61 19 -69 94 -11 104 39 8 63 1 75 -21z m1508 -32 c27 -55 24
-111 -9 -165 -23 -38 -40 -47 -75 -38 -56 14 -84 122 -51 200 17 41 41 57 81
53 25 -2 34 -10 54 -50z m6151 43 c82 -23 93 -71 24 -103 -48 -23 -170 -25
-192 -3 -14 14 -10 18 41 41 31 13 57 29 57 35 0 25 -36 21 -92 -9 -63 -34
-74 -35 -64 -3 15 45 136 67 226 42z m-5716 -35 c33 -14 36 -19 36 -55 0 -26
-7 -47 -20 -60 -17 -17 -24 -18 -52 -8 -45 16 -56 29 -64 76 -6 40 -5 41 27
51 19 5 35 10 35 10 1 1 18 -6 38 -14z m834 -171 c12 -8 22 -21 22 -27 0 -32
-23 -88 -40 -97 -24 -13 -70 3 -70 24 0 8 -6 19 -12 23 -17 10 -38 49 -38 67
0 27 102 35 138 10z m-159 -113 c12 -8 11 -19 -5 -76 -29 -100 -63 -107 -128
-25 -61 77 -50 96 59 103 28 2 52 4 55 5 3 1 11 -2 19 -7z m1017 -51 c20 -18
19 -118 -3 -142 -20 -22 -80 -24 -110 -3 -16 11 -23 12 -30 2 -15 -19 -30 -69
-32 -102 -2 -42 -21 -58 -63 -50 -47 9 -49 11 -88 88 -42 86 -38 89 93 84 108
-4 113 0 82 59 -23 44 -20 82 8 86 35 5 127 -9 143 -22z m862 -162 l34 -9 -7
-77 c-4 -42 -11 -81 -15 -86 -13 -13 -72 -15 -100 -2 -31 13 -40 25 -40 54 0
13 -9 36 -19 51 -19 26 -24 44 -22 69 1 15 113 15 169 0z m-160 -135 c21 -5
23 -10 17 -37 -4 -17 -8 -55 -9 -85 -3 -69 -21 -84 -92 -79 -64 5 -80 21 -89
84 -4 27 -14 61 -21 75 -10 20 -10 29 -1 38 12 12 155 15 195 4z m-1096 -32
c162 -34 203 -44 216 -55 16 -15 50 -114 67 -193 12 -56 11 -69 -6 -128 -19
-61 -24 -68 -97 -125 -42 -33 -80 -60 -83 -60 -3 0 -9 46 -13 102 -4 68 -11
107 -21 118 -15 16 -141 47 -151 37 -13 -12 8 -25 51 -30 85 -12 85 -12 85
-150 l0 -122 -80 -63 c-85 -66 -98 -70 -133 -48 -18 12 -131 41 -313 81 -12 3
-24 11 -27 18 -5 14 19 282 28 304 2 7 -7 24 -22 37 -23 22 -25 55 -2 41 5 -4
17 1 26 11 23 22 120 14 169 -15 19 -12 41 -21 49 -21 14 0 65 83 65 106 0 9
-12 14 -35 14 -41 0 -105 24 -105 39 0 29 129 46 154 21 7 -7 4 -10 -8 -10
-11 0 -16 -6 -14 -17 6 -31 20 -16 44 43 24 58 41 84 54 84 5 0 50 -9 102 -19z
m3734 -188 c-10 -10 -19 5 -10 18 6 11 8 11 12 0 2 -7 1 -15 -2 -18z m-2857
-17 c64 -14 80 -33 63 -70 -19 -43 -81 -56 -143 -31 -21 8 -30 -14 -35 -80 -4
-62 -31 -89 -78 -79 -43 9 -56 21 -82 79 -12 28 -29 57 -38 64 -47 39 17 87
107 78 32 -3 50 0 55 8 4 7 27 20 52 28 25 9 45 16 45 16 0 0 24 -6 54 -13z
m2935 -41 c-4 -8 -8 -15 -10 -15 -2 0 -4 7 -4 15 0 8 4 15 10 15 5 0 7 -7 4
-15z m-24 -5 c0 -5 -4 -10 -10 -10 -5 0 -10 5 -10 10 0 6 5 10 10 10 6 0 10
-4 10 -10z m-3186 -160 c7 -7 6 -20 -3 -43 -8 -17 -15 -55 -16 -84 -2 -64 -17
-83 -62 -83 -48 0 -89 25 -99 60 -1 3 -5 19 -9 37 -4 18 -16 40 -26 49 -33 30
-21 64 26 77 31 9 177 -1 189 -13z m1721 -60 c-10 -11 -20 -18 -23 -15 -7 6
18 35 31 35 5 0 2 -9 -8 -20z m-3150 -140 c36 -14 40 -34 16 -80 -12 -22 -21
-52 -21 -65 0 -14 -8 -29 -20 -35 -14 -8 -20 -8 -20 0 0 6 -4 9 -9 5 -6 -3
-14 2 -19 11 -6 10 -16 15 -26 11 -12 -5 -16 0 -16 23 0 19 -7 33 -21 40 -31
17 -59 48 -59 65 0 9 10 20 23 25 30 12 140 12 172 0z m266 -11 c17 -17 19
-28 13 -67 -8 -58 -27 -82 -52 -65 -10 6 -16 21 -14 36 1 14 -2 28 -8 32 -15
9 -12 52 6 69 20 21 30 20 55 -5z m2068 -113 c28 -26 26 -50 -5 -75 -29 -23
-69 -26 -126 -11 -70 20 -94 78 -40 99 43 17 147 8 171 -13z m-4671 -62 c23
-7 12 -39 -23 -63 -28 -19 -42 -22 -78 -17 -75 11 -135 63 -93 79 18 7 56 -3
56 -14 0 -17 35 -9 53 11 16 19 33 20 85 4z m421 -114 c17 -52 31 -101 31
-108 0 -27 -34 -6 -42 26 -8 28 -13 33 -35 30 -21 -2 -29 -10 -35 -35 -9 -33
-38 -46 -38 -17 0 19 36 163 51 200 8 24 12 25 23 13 8 -8 28 -57 45 -109z
m755 104 c11 -28 7 -212 -5 -220 -6 -3 -15 0 -20 7 -10 16 -12 212 -2 222 11
11 20 8 27 -9z m121 6 c10 -16 -15 -40 -41 -40 -34 0 -30 -21 10 -56 l34 -31
6 30 c3 16 6 45 6 64 0 23 4 33 13 31 8 -3 13 -31 15 -83 3 -82 12 -105 42
-105 25 0 30 20 30 109 0 82 5 98 27 80 15 -14 18 -144 3 -183 -5 -14 -20 -32
-34 -41 -35 -23 -77 -3 -93 45 -8 25 -12 29 -12 14 -1 -36 -33 -65 -71 -67
-29 -2 -36 2 -38 21 -3 19 1 22 28 22 42 0 51 27 18 54 -50 41 -62 92 -28 126
21 21 74 27 85 10z m272 -95 c18 -55 33 -107 33 -117 0 -31 -28 -19 -40 17 -9
27 -17 35 -35 35 -18 0 -26 -8 -35 -35 -11 -35 -23 -44 -35 -25 -5 8 40 203
52 223 13 20 29 -6 60 -98z m382 96 c20 -13 5 -41 -22 -41 -13 0 -26 -3 -30
-6 -9 -10 4 -34 25 -45 15 -8 24 -7 39 7 40 36 199 24 207 -17 1 -9 -6 -27
-17 -40 -18 -22 -26 -24 -100 -23 -46 1 -81 -3 -81 -8 0 -29 -35 -78 -61 -87
-16 -5 -32 -17 -35 -26 -9 -22 -22 -18 -26 8 -2 18 -11 23 -45 28 -70 9 -74
17 -71 138 l3 106 49 3 c32 2 52 -1 57 -10 13 -20 -10 -38 -42 -31 -25 5 -29
2 -29 -16 0 -17 6 -21 30 -21 19 0 30 -5 30 -14 0 -8 7 -17 16 -20 13 -5 15 0
9 33 -10 60 7 82 70 89 6 1 16 -2 24 -7z m1569 -8 c5 -10 12 -44 15 -76 5 -49
3 -61 -14 -78 -43 -43 -77 -10 -77 76 0 72 11 95 43 95 13 0 28 -8 33 -17z
m-3028 -83 c4 -66 9 -85 23 -94 31 -19 47 17 47 106 0 63 3 78 15 78 12 0 15
-17 15 -95 0 -88 -2 -98 -25 -120 -13 -14 -29 -25 -35 -25 -25 0 -52 23 -66
55 -14 35 -20 166 -7 179 18 18 28 -8 33 -84z m1158 -7 l3 -92 32 -3 c20 -2
32 -8 32 -18 0 -11 -12 -15 -50 -15 l-50 0 -3 113 c-2 104 -1 113 15 110 15
-3 18 -16 21 -95z m1608 76 c25 -26 9 -155 -21 -175 -47 -31 -147 9 -131 53 3
7 1 13 -3 13 -14 0 -51 65 -51 89 0 31 33 41 117 38 50 -2 78 -7 89 -18z
m6253 -48 c11 -11 25 -39 31 -62 33 -120 -60 -228 -131 -153 -21 22 -24 35
-24 99 0 68 2 76 29 104 34 36 67 40 95 12z m-2114 -13 c3 -13 5 -66 3 -118
-3 -81 -6 -95 -20 -98 -16 -3 -18 7 -18 101 0 58 3 112 6 121 9 23 23 20 29
-6z m65 -46 c8 -33 18 -63 21 -66 3 -4 14 23 24 59 18 70 31 87 42 59 6 -17
-23 -145 -47 -210 -10 -24 -13 -26 -26 -13 -17 17 -67 216 -58 230 13 21 29 0
44 -59z m217 52 c7 -19 -13 -34 -44 -34 -16 0 -23 -6 -23 -19 0 -15 8 -21 33
-23 24 -2 32 -8 32 -23 0 -15 -8 -21 -32 -23 -27 -3 -33 -7 -33 -28 0 -20 5
-24 30 -24 32 0 38 -7 42 -55 2 -20 -1 -29 -9 -28 -7 2 -13 -2 -13 -8 0 -5 -4
-7 -10 -4 -5 3 -10 1 -10 -4 0 -8 -6 -8 -17 -2 -10 5 -26 12 -35 15 -16 5 -18
19 -18 118 0 154 2 158 56 158 32 0 46 -5 51 -16z m792 -10 c39 -32 52 -80 39
-134 -14 -53 -48 -80 -104 -80 l-44 0 0 113 c0 63 3 117 7 120 16 16 73 6 102
-19z m177 -42 c12 -34 23 -65 26 -68 3 -3 16 24 28 60 24 74 36 87 49 54 15
-41 23 -206 10 -214 -16 -10 -29 15 -29 59 0 51 -12 46 -33 -14 -21 -59 -32
-56 -59 19 -13 37 -17 42 -17 21 -2 -52 -13 -89 -29 -89 -13 0 -14 15 -8 112
4 62 10 116 13 121 12 19 29 -3 49 -61z m-3034 -7 c13 -18 8 -68 -9 -87 -35
-39 -182 -8 -198 43 -6 17 -2 27 15 41 19 16 38 18 104 16 45 -1 84 -7 88 -13z
m-1174 -67 c7 -7 12 -33 12 -59 0 -26 5 -51 10 -54 13 -8 13 -51 0 -76 -12
-21 -55 -26 -66 -7 -8 12 -21 72 -31 141 -3 22 0 43 7 52 15 18 51 20 68 3z
m-237 -39 c17 -17 20 -29 15 -61 -6 -38 -35 -104 -36 -83 0 6 -4 5 -8 -1 -13
-21 -56 -21 -60 -1 -2 10 -24 39 -48 65 -70 73 -55 100 59 101 45 1 61 -3 78
-20z m-2297 -49 c-10 -4 -21 -6 -24 -3 -8 7 24 22 34 16 5 -4 1 -10 -10 -13z
m-1447 -69 c31 -1 40 -42 19 -85 -9 -19 -16 -41 -16 -50 0 -9 -4 -16 -10 -16
-5 0 -10 -6 -10 -14 0 -21 -47 -13 -71 12 -10 12 -19 26 -19 32 0 5 -6 10 -12
10 -21 1 -49 49 -46 78 4 36 29 41 165 33z m1287 -76 c2 -7 -1 -21 -9 -32 -19
-25 -136 -26 -162 0 -24 24 -7 50 38 57 44 7 126 -9 133 -25z m2286 28 c0 -2
-12 -40 -26 -83 -21 -67 -29 -80 -47 -81 -34 -2 -52 2 -55 12 -2 5 -8 7 -13 3
-5 -3 -9 2 -9 10 0 8 -7 21 -15 30 -16 16 -49 86 -43 92 15 14 65 23 131 22
42 0 77 -2 77 -5z m1377 -15 c7 -12 15 -55 29 -148 4 -26 1 -42 -13 -59 -24
-29 -71 -31 -90 -5 -14 19 -14 29 5 134 13 73 48 111 69 78z m-4031 -183 c16
-22 8 -96 -12 -108 -8 -4 -14 -14 -14 -22 0 -8 -8 -12 -20 -10 -11 2 -20 -2
-20 -8 0 -7 -12 0 -25 16 -13 15 -29 27 -35 27 -5 0 -10 9 -10 20 0 11 -4 20
-8 20 -11 0 -35 51 -28 58 36 35 148 40 172 7z m-2225 -25 c90 -22 184 -47
209 -54 25 -8 90 -24 145 -35 145 -31 171 -39 205 -67 33 -28 38 -44 15 -44
-8 0 -15 -4 -15 -8 0 -5 -24 -24 -52 -42 -29 -19 -55 -37 -58 -41 -3 -3 -23
-10 -45 -15 -31 -8 -59 -5 -130 13 -137 35 -196 52 -245 73 -25 10 -61 18 -82
18 -20 0 -51 5 -70 11 -18 5 -71 20 -118 32 -78 21 -110 39 -110 62 0 14 72
77 87 77 7 0 13 5 13 10 0 6 5 10 11 10 6 0 22 9 36 20 14 11 29 20 33 20 3 0
80 -18 171 -40z m664 -209 c-3 -6 -16 -11 -28 -11 -21 0 -21 1 3 13 27 15 36
14 25 -2z m54 -17 c-6 -7 -8 -18 -4 -24 3 -5 1 -10 -5 -10 -11 0 -30 41 -24
52 2 3 13 4 24 1 16 -4 18 -9 9 -19z m46 5 c11 -17 -1 -21 -15 -4 -8 9 -8 15
-2 15 6 0 14 -5 17 -11z m-77 -37 c2 -8 -5 -11 -19 -9 -13 2 -25 9 -27 15 -2
8 5 11 19 9 13 -2 25 -9 27 -15z m270 -12 c2 -5 9 -7 17 -4 26 11 24 -14 -5
-41 -18 -18 -30 -23 -30 -15 0 9 -5 7 -14 -6 -17 -22 -17 -23 -39 40 l-17 49
43 -7 c23 -4 43 -11 45 -16z m-321 -32 c-3 -7 -5 -2 -5 12 0 14 2 19 5 13 2
-7 2 -19 0 -25z m93 -2 c0 -2 -7 -7 -16 -10 -8 -3 -12 -2 -9 4 6 10 25 14 25
6z m77 -48 c-3 -8 -6 -5 -6 6 -1 11 2 17 5 13 3 -3 4 -12 1 -19z m73 8 c0 -18
-27 -29 -36 -14 -4 7 -3 8 4 4 7 -4 12 -1 12 8 0 9 5 16 10 16 6 0 10 -6 10
-14z m-1216 -102 c12 -12 16 -12 16 -2 0 10 3 10 9 -2 14 -21 4 -29 -29 -27
-21 1 -30 7 -30 20 0 11 -4 15 -12 11 -7 -4 -8 -3 -4 4 10 17 32 15 50 -4z"/>
<path d="M1049 2223 c-18 -4 -49 -85 -49 -126 0 -19 14 -45 42 -78 22 -27 39
-51 36 -54 -3 -3 -23 17 -44 45 -40 53 -54 61 -54 33 0 -10 -31 -59 -68 -110
-217 -295 -196 -262 -183 -300 12 -31 11 -37 -7 -56 -51 -56 -82 -149 -63
-186 17 -31 84 -29 136 5 42 27 39 27 -42 -2 -43 -15 -54 -16 -67 -5 -30 25
-13 97 40 166 24 32 28 34 44 20 15 -13 19 -13 46 8 17 12 81 81 143 152 131
151 155 175 173 175 7 0 33 7 58 16 41 15 47 21 63 68 9 29 16 73 16 97 -1 24
-4 34 -6 22 -5 -27 -20 -30 -26 -5 -4 13 -5 11 -6 -5 -1 -14 5 -23 14 -23 20
0 20 -39 0 -46 -8 -4 -13 -10 -10 -14 3 -5 1 -11 -5 -15 -6 -4 -11 24 -12 77
l-2 83 -6 -75 c-5 -55 -9 -69 -14 -52 -5 12 -12 22 -17 22 -5 0 -10 15 -10 33
-1 17 -3 24 -6 14 -2 -9 -9 -15 -14 -11 -5 3 -7 10 -4 15 4 5 -1 9 -9 9 -9 0
-16 9 -16 21 0 11 -4 17 -10 14 -5 -3 -10 1 -10 9 0 9 -7 16 -15 16 -14 0 -19
11 -16 38 1 6 1 11 -1 11 -2 -1 -10 -3 -19 -6z m5 -83 c8 0 14 -11 14 -25 0
-31 -18 -33 -19 -2 -1 21 -1 21 -9 -3 -7 -20 -8 -17 -8 20 0 25 2 37 5 28 2
-10 10 -18 17 -18z m47 -60 c5 0 9 -26 8 -57 -1 -37 -3 -49 -7 -35 -4 13 -11
24 -17 25 -5 1 -9 5 -7 10 1 4 -5 7 -13 7 -9 0 -15 9 -15 23 0 16 -3 18 -9 9
-7 -11 -9 -11 -14 2 -5 12 0 16 23 16 21 0 30 5 31 18 1 16 2 16 6 0 2 -10 9
-18 14 -18z m39 -46 c0 -8 5 -14 10 -14 6 0 10 -18 10 -40 0 -33 -3 -40 -20
-40 -18 0 -20 7 -20 61 0 37 4 58 10 54 6 -3 10 -13 10 -21z m49 -51 c0 -5 -4
-17 -9 -28 -8 -18 -9 -17 -9 8 -1 15 4 27 9 27 6 0 10 -3 9 -7z"/>
<path d="M1190 2221 c0 -6 5 -11 10 -11 6 0 10 -10 11 -22 0 -22 1 -22 9 -3
l9 20 1 -20 c2 -11 2 -25 1 -31 -1 -6 6 -11 14 -11 20 0 19 8 -7 47 -24 34
-48 50 -48 31z"/>
<path d="M2286 1924 c-10 -26 -7 -111 3 -94 15 24 25 110 13 110 -5 0 -13 -7
-16 -16z"/>
<path d="M3437 1843 c-9 -14 -29 -181 -25 -195 3 -7 12 35 21 92 15 99 16 122
4 103z"/>
<path d="M2096 1764 c-9 -24 -7 -54 4 -54 6 0 10 16 10 35 0 38 -4 44 -14 19z"/>
<path d="M2670 1578 c0 -49 5 -47 14 5 4 23 3 37 -4 37 -5 0 -10 -19 -10 -42z"/>
<path d="M1101 1490 c-7 -23 -15 -49 -18 -58 -4 -10 -2 -13 5 -8 13 8 35 82
30 98 -2 6 -10 -8 -17 -32z"/>
<path d="M1037 1353 c-45 -71 -57 -100 -38 -88 15 8 74 115 68 122 -3 2 -16
-12 -30 -34z"/>
<path d="M2290 1025 c0 -67 2 -75 19 -75 25 0 61 46 61 77 0 27 -41 73 -65 73
-12 0 -15 -14 -15 -75z"/>
<path d="M2520 1071 c-15 -30 -12 -97 6 -115 20 -20 27 -20 47 2 20 22 21 39
5 92 -14 44 -40 53 -58 21z"/>
<path d="M2750 2505 c0 -57 2 -65 18 -65 26 0 52 32 52 64 0 41 -17 66 -45 66
-24 0 -25 -3 -25 -65z"/>
<path d="M2972 2570 c-26 -42 -8 -141 26 -140 24 1 52 46 52 84 0 65 -50 101
-78 56z"/>
<path d="M11076 1011 c-23 -26 -19 -119 7 -135 42 -27 79 45 58 114 -13 45
-37 52 -65 21z"/>
<path d="M10032 948 c3 -71 4 -73 28 -70 33 3 48 20 56 59 5 26 1 37 -19 57
-15 14 -35 26 -47 26 -20 0 -21 -5 -18 -72z"/>
<path d="M567 453 c-4 -3 -7 -17 -7 -31 0 -21 3 -23 27 -17 36 9 37 10 23 34
-11 21 -30 27 -43 14z"/>
<path d="M816 372 c-3 -5 1 -9 9 -9 8 0 15 4 15 9 0 4 -4 8 -9 8 -6 0 -12 -4
-15 -8z"/>
<path d="M860 355 c0 -8 5 -15 10 -15 6 0 10 7 10 15 0 8 -4 15 -10 15 -5 0
-10 -7 -10 -15z"/>
<path d="M890 354 c0 -8 5 -12 10 -9 6 4 8 11 5 16 -9 14 -15 11 -15 -7z"/>
<path d="M1690 229 c0 -5 5 -7 10 -4 6 3 10 8 10 11 0 2 -4 4 -10 4 -5 0 -10
-5 -10 -11z"/>
<path d="M7665 2290 c-8 -9 -30 -25 -49 -35 -31 -17 -33 -21 -45 -109 -35
-261 -72 -404 -136 -526 -13 -25 -35 -69 -50 -98 l-25 -52 23 -9 c13 -5 35 -7
50 -4 30 6 56 41 39 52 -14 8 -3 91 12 97 7 3 10 25 8 59 -4 55 10 76 23 35 9
-28 20 -18 23 22 2 18 7 37 12 42 13 13 13 36 0 36 -5 0 -10 -7 -10 -15 0 -8
-5 -15 -11 -15 -7 0 -8 12 -4 33 9 39 13 47 26 47 6 0 8 -4 5 -8 -2 -4 -1 -14
5 -22 7 -12 9 -10 9 9 0 34 21 103 37 122 7 8 13 21 13 28 0 8 6 11 15 7 8 -3
15 -4 15 -3 0 1 -7 20 -15 42 -8 22 -14 56 -15 75 0 35 48 159 63 160 13 0 7
-150 -8 -187 -8 -19 -15 -44 -15 -54 0 -22 49 -81 50 -59 0 8 5 79 10 158 9
142 9 142 -15 166 -23 23 -25 23 -40 6z"/>
<path d="M7935 2250 c-8 -16 -31 -85 -50 -152 -52 -183 -112 -318 -141 -318
-8 0 -14 5 -14 11 0 5 -5 7 -10 4 -11 -7 -3 -74 10 -88 11 -13 76 82 115 167
19 42 48 131 65 199 47 186 58 200 98 128 27 -48 27 -70 1 -229 -12 -70 -24
-192 -28 -272 l-6 -144 -45 -11 -45 -11 2 -48 c1 -26 4 -50 6 -52 3 -3 39 5
82 17 69 20 76 25 70 43 -36 117 -39 138 -39 256 0 99 6 151 27 250 15 69 30
137 33 152 5 22 -2 35 -41 77 -26 28 -54 51 -61 51 -7 0 -20 -13 -29 -30z"/>
<path d="M8975 2239 c-22 -10 -43 -20 -47 -21 -4 -2 -19 -151 -33 -332 -26
-326 -26 -330 -7 -355 25 -33 43 -36 72 -13 23 18 24 28 36 228 18 289 28 514
23 513 -2 0 -22 -9 -44 -20z"/>
<path d="M10840 2000 c0 -5 6 -10 13 -10 8 0 19 -11 25 -25 12 -27 42 -34 42
-11 0 15 -50 56 -69 56 -6 0 -11 -4 -11 -10z"/>
<path d="M7923 1973 c-22 -63 -80 -198 -109 -253 -19 -35 -34 -71 -34 -78 0
-29 33 12 62 76 15 34 32 62 37 62 5 0 7 -35 4 -80 -4 -54 -2 -80 5 -80 11 0
18 48 27 200 3 52 9 112 14 133 9 38 5 51 -6 20z"/>
<path d="M7696 1904 c-9 -25 -7 -72 4 -79 6 -4 10 13 10 44 0 53 -4 62 -14 35z"/>
<path d="M10332 1907 c-1 -5 -15 -67 -32 -139 -37 -159 -37 -168 -6 -168 52 0
56 6 55 94 -1 76 -14 231 -17 213z"/>
<path d="M10834 1848 c-9 -15 -32 -343 -24 -351 4 -5 26 8 48 28 58 51 77 108
77 225 l0 95 -48 6 c-27 3 -50 2 -53 -3z"/>
<path d="M8396 1668 c-133 -164 -161 -205 -143 -211 24 -9 82 7 95 25 7 10 20
18 28 18 8 0 14 7 14 15 0 8 5 15 11 15 17 0 38 64 41 124 2 31 0 56 -4 56 -4
0 -23 -19 -42 -42z"/>
<path d="M9758 1550 c-41 -179 -45 -210 -25 -210 6 0 22 -3 34 -6 18 -5 23 -1
28 28 3 18 5 105 3 193 l-3 160 -37 -165z"/>
<path d="M8491 1604 c0 -11 3 -14 6 -6 3 7 2 16 -1 19 -3 4 -6 -2 -5 -13z"/>
<path d="M7480 1540 c0 -11 2 -20 4 -20 2 0 6 9 9 20 3 11 1 20 -4 20 -5 0 -9
-9 -9 -20z"/>
<path d="M8620 1433 c0 -18 5 -33 10 -33 13 0 13 30 0 50 -7 11 -10 7 -10 -17z"/>
<path d="M8260 1413 c35 -11 45 -14 50 -14 15 -1 27 -22 23 -39 -6 -23 6 -26
31 -7 39 28 -10 68 -82 66 -20 0 -30 -3 -22 -6z"/>
<path d="M8218 1384 c-18 -17 -6 -32 29 -37 26 -5 42 -2 52 8 8 8 12 17 9 21
-10 10 -82 16 -90 8z"/>
<path d="M8476 1339 c-3 -17 -6 -49 -6 -71 0 -33 3 -38 18 -34 9 3 29 8 45 12
34 8 34 16 -3 54 -27 28 -34 42 -31 63 0 4 -3 7 -8 7 -5 0 -11 -14 -15 -31z"/>
<path d="M206 1351 c-4 -7 -5 -15 -2 -18 9 -9 19 4 14 18 -4 11 -6 11 -12 0z"/>
<path d="M8342 1148 c-21 -84 -21 -88 -2 -88 10 0 24 -7 31 -16 11 -14 10 -18
-10 -33 -19 -14 -21 -21 -12 -43 6 -15 18 -31 29 -37 25 -13 80 22 88 58 3 14
12 49 20 76 20 75 13 89 -54 104 -31 7 -62 15 -68 17 -6 3 -16 -14 -22 -38z"/>
<path d="M9714 988 c8 -39 23 -58 47 -58 14 0 19 7 19 28 0 32 -27 62 -55 62
-14 0 -16 -6 -11 -32z"/>
<path d="M10930 995 c0 -26 24 -35 32 -12 7 18 -2 37 -18 37 -8 0 -14 -10 -14
-25z"/>
<path d="M8185 980 c-4 -17 -13 -44 -22 -60 -12 -24 -12 -37 -4 -62 6 -17 11
-42 11 -54 0 -13 6 -24 13 -24 19 0 41 45 62 124 l18 69 -24 18 c-34 26 -46
23 -54 -11z"/>
<path d="M10632 983 c2 -23 8 -29 36 -31 17 -2 32 1 32 5 0 19 -33 53 -51 53
-16 0 -20 -6 -17 -27z"/>
<path d="M9454 914 c3 -9 6 -27 6 -42 0 -25 1 -25 15 -6 22 30 19 64 -6 64
-15 0 -19 -4 -15 -16z"/>
<path d="M8014 756 c-20 -15 -13 -22 46 -44 103 -40 140 -39 124 1 -4 12 -18
17 -49 17 -24 0 -50 6 -57 13 -22 22 -45 26 -64 13z"/>
<path d="M7806 538 c-22 -31 -20 -74 4 -98 25 -25 35 -25 70 0 47 33 96 31
110 -5 10 -27 41 -33 58 -12 16 19 25 63 17 86 -8 28 -89 51 -176 51 -59 0
-70 -3 -83 -22z"/>
<path d="M7610 325 c0 -8 4 -15 10 -15 5 0 7 7 4 15 -4 8 -8 15 -10 15 -2 0
-4 -7 -4 -15z"/>
<path d="M7823 290 c-22 -20 -40 -27 -59 -25 -43 4 -81 -13 -92 -43 -5 -15
-18 -49 -27 -75 -18 -50 -37 -64 -96 -71 -32 -3 -59 -22 -59 -42 0 -8 -6 -14
-12 -14 -7 0 -5 -5 5 -11 12 -7 71 -10 157 -7 l139 3 36 35 c20 19 43 47 51
62 29 56 30 200 1 211 -7 3 -27 -8 -44 -23z"/>
</g>
</svg>
